<svg xmlns="http://www.w3.org/2000/svg" xmlns:xlink="http://www.w3.org/1999/xlink" width="1080" zoomAndPan="magnify" viewBox="0 0 810 809.999993" height="1080" preserveAspectRatio="xMidYMid meet" version="1.0"><defs><g/></defs><g fill="#000000" fill-opacity="1"><g transform="translate(396.059909, 661.720278)"><g><path d="M -15.890625 54.828125 L -41.296875 50.609375 C -47.367188 49.609375 -52.539062 47.5625 -56.8125 44.46875 C -61.09375 41.382812 -64.175781 37.523438 -66.0625 32.890625 C -67.945312 28.253906 -68.425781 23.144531 -67.5 17.5625 C -66.582031 11.96875 -64.484375 7.28125 -61.203125 3.5 C -57.921875 -0.28125 -53.753906 -2.941406 -48.703125 -4.484375 C -43.660156 -6.035156 -38.101562 -6.3125 -32.03125 -5.3125 L -6.625 -1.09375 Z M -33.171875 5.421875 C -38.753906 4.492188 -43.46875 5.3125 -47.3125 7.875 C -51.164062 10.445312 -53.53125 14.394531 -54.40625 19.71875 C -55.289062 25.039062 -54.320312 29.535156 -51.5 33.203125 C -48.6875 36.867188 -44.488281 39.164062 -38.90625 40.09375 L -27.078125 42.046875 L -21.34375 7.375 Z M -33.171875 5.421875 "/></g></g></g><g fill="#000000" fill-opacity="1"><g transform="translate(335.893433, 651.542083)"><g><path d="M -53.0625 2.5625 C -53 2.40625 -52.507812 1.378906 -51.59375 -0.515625 L -20.875 11.4375 C -20.445312 8.695312 -20.976562 6.195312 -22.46875 3.9375 C -23.96875 1.675781 -26.253906 -0.0507812 -29.328125 -1.25 C -31.429688 -2.0625 -33.421875 -2.472656 -35.296875 -2.484375 C -37.179688 -2.492188 -39.09375 -2.09375 -41.03125 -1.28125 L -44.65625 -10.515625 C -39.132812 -13.398438 -32.695312 -13.410156 -25.34375 -10.546875 C -20.769531 -8.765625 -17.070312 -6.296875 -14.25 -3.140625 C -11.425781 0.015625 -9.671875 3.546875 -8.984375 7.453125 C -8.304688 11.367188 -8.75 15.335938 -10.3125 19.359375 C -11.863281 23.335938 -14.203125 26.554688 -17.328125 29.015625 C -20.460938 31.472656 -24.023438 32.953125 -28.015625 33.453125 C -32.003906 33.960938 -36.03125 33.425781 -40.09375 31.84375 C -44.082031 30.289062 -47.347656 28.03125 -49.890625 25.0625 C -52.441406 22.101562 -54.019531 18.664062 -54.625 14.75 C -55.226562 10.84375 -54.707031 6.78125 -53.0625 2.5625 Z M -36.71875 22.890625 C -34.050781 23.929688 -31.515625 24.046875 -29.109375 23.234375 C -26.710938 22.429688 -24.804688 20.8125 -23.390625 18.375 L -43.40625 10.578125 C -43.988281 13.304688 -43.671875 15.785156 -42.453125 18.015625 C -41.242188 20.253906 -39.332031 21.878906 -36.71875 22.890625 Z M -49.21875 46.09375 L -61.90625 41.171875 L -44.03125 35.625 L -34.8125 39.203125 Z M -49.21875 46.09375 "/></g></g></g><g fill="#000000" fill-opacity="1"><g transform="translate(292.786967, 635.107043)"><g><path d="M -64.5625 11.765625 L -26.234375 -15.921875 L -15.09375 -9.15625 L -22.0625 37.5625 L -33.203125 30.796875 L -28.125 -0.78125 L -54.171875 18.078125 Z M -64.5625 11.765625 "/></g></g></g><g fill="#000000" fill-opacity="1"><g transform="translate(255.30974, 612.999821)"><g><path d="M -50.734375 -15.75 C -50.617188 -15.875 -49.804688 -16.671875 -48.296875 -18.140625 L -23.53125 3.59375 C -22.1875 1.175781 -21.832031 -1.347656 -22.46875 -3.984375 C -23.101562 -6.617188 -24.65625 -9.023438 -27.125 -11.203125 C -28.832031 -12.691406 -30.566406 -13.757812 -32.328125 -14.40625 C -34.085938 -15.0625 -36.019531 -15.34375 -38.125 -15.25 L -38.375 -25.171875 C -32.195312 -25.984375 -26.144531 -23.789062 -20.21875 -18.59375 C -16.519531 -15.34375 -13.882812 -11.75 -12.3125 -7.8125 C -10.738281 -3.882812 -10.300781 0.03125 -11 3.9375 C -11.695312 7.851562 -13.46875 11.429688 -16.3125 14.671875 C -19.132812 17.878906 -22.4375 20.101562 -26.21875 21.34375 C -30 22.582031 -33.847656 22.753906 -37.765625 21.859375 C -41.691406 20.960938 -45.289062 19.078125 -48.5625 16.203125 C -51.78125 13.378906 -54.082031 10.140625 -55.46875 6.484375 C -56.851562 2.828125 -57.15625 -0.9375 -56.375 -4.8125 C -55.601562 -8.695312 -53.722656 -12.34375 -50.734375 -15.75 Z M -42.34375 8.953125 C -40.1875 10.835938 -37.84375 11.8125 -35.3125 11.875 C -32.789062 11.9375 -30.4375 11.0625 -28.25 9.25 L -44.390625 -4.90625 C -45.878906 -2.550781 -46.4375 -0.117188 -46.0625 2.390625 C -45.6875 4.910156 -44.445312 7.097656 -42.34375 8.953125 Z M -42.34375 8.953125 "/></g></g></g><g fill="#000000" fill-opacity="1"><g transform="translate(220.226553, 581.373731)"><g><path d="M -49.078125 35.15625 L -57.40625 25.640625 L -12.15625 -13.90625 L -3.828125 -4.390625 Z M -49.078125 35.15625 "/></g></g></g><g fill="#000000" fill-opacity="1"><g transform="translate(205.769729, 566.710532)"><g><path d="M -14.078125 -22.546875 C -11.554688 -18.703125 -10.09375 -14.734375 -9.6875 -10.640625 C -9.28125 -6.546875 -9.929688 -2.707031 -11.640625 0.875 C -13.347656 4.457031 -16.003906 7.4375 -19.609375 9.8125 C -23.222656 12.1875 -27.015625 13.453125 -30.984375 13.609375 C -34.953125 13.765625 -38.738281 12.851562 -42.34375 10.875 C -45.945312 8.894531 -49.007812 5.984375 -51.53125 2.140625 C -54.0625 -1.691406 -55.519531 -5.644531 -55.90625 -9.71875 C -56.289062 -13.800781 -55.628906 -17.632812 -53.921875 -21.21875 C -52.210938 -24.800781 -49.550781 -27.78125 -45.9375 -30.15625 C -42.332031 -32.53125 -38.546875 -33.796875 -34.578125 -33.953125 C -30.609375 -34.109375 -26.832031 -33.203125 -23.25 -31.234375 C -19.664062 -29.273438 -16.609375 -26.378906 -14.078125 -22.546875 Z M -22.71875 -16.84375 C -24.5 -19.539062 -26.875 -21.15625 -29.84375 -21.6875 C -32.820312 -22.226562 -35.84375 -21.488281 -38.90625 -19.46875 C -41.976562 -17.445312 -43.851562 -14.96875 -44.53125 -12.03125 C -45.207031 -9.09375 -44.65625 -6.273438 -42.875 -3.578125 C -41.09375 -0.867188 -38.710938 0.757812 -35.734375 1.3125 C -32.753906 1.875 -29.726562 1.144531 -26.65625 -0.875 C -23.59375 -2.894531 -21.722656 -5.382812 -21.046875 -8.34375 C -20.378906 -11.300781 -20.9375 -14.132812 -22.71875 -16.84375 Z M -22.71875 -16.84375 "/></g></g></g><g fill="#000000" fill-opacity="1"><g transform="translate(178.995756, 527.247373)"><g><path d="M -52.921875 -12.3125 C -54.460938 -16.0625 -55.003906 -19.828125 -54.546875 -23.609375 C -54.097656 -27.390625 -52.671875 -30.796875 -50.265625 -33.828125 C -47.867188 -36.859375 -44.601562 -39.226562 -40.46875 -40.9375 C -36.320312 -42.644531 -32.328125 -43.269531 -28.484375 -42.8125 C -24.648438 -42.351562 -21.238281 -40.945312 -18.25 -38.59375 C -15.257812 -36.238281 -12.992188 -33.1875 -11.453125 -29.4375 C -9.335938 -24.300781 -9.289062 -19.59375 -11.3125 -15.3125 L 7.484375 -23.078125 L 12.3125 -11.390625 L -42.484375 11.234375 L -47.09375 0.09375 L -42.453125 -1.828125 C -47.148438 -3.285156 -50.640625 -6.78125 -52.921875 -12.3125 Z M -20.203125 -23.46875 C -21.429688 -26.457031 -23.453125 -28.492188 -26.265625 -29.578125 C -29.078125 -30.660156 -32.179688 -30.503906 -35.578125 -29.109375 C -38.972656 -27.710938 -41.28125 -25.632812 -42.5 -22.875 C -43.726562 -20.125 -43.726562 -17.253906 -42.5 -14.265625 C -41.257812 -11.265625 -39.234375 -9.21875 -36.421875 -8.125 C -33.617188 -7.039062 -30.519531 -7.195312 -27.125 -8.59375 C -23.726562 -9.988281 -21.414062 -12.066406 -20.1875 -14.828125 C -18.957031 -17.585938 -18.960938 -20.46875 -20.203125 -23.46875 Z M -20.203125 -23.46875 "/></g></g></g><g fill="#000000" fill-opacity="1"><g transform="translate(159.279129, 480.891862)"><g><path d="M -49.5 -22.40625 C -50.289062 -26.375 -50.09375 -30.164062 -48.90625 -33.78125 C -47.726562 -37.40625 -45.664062 -40.46875 -42.71875 -42.96875 C -39.769531 -45.476562 -36.097656 -47.164062 -31.703125 -48.03125 C -27.316406 -48.90625 -23.285156 -48.742188 -19.609375 -47.546875 C -15.929688 -46.359375 -12.859375 -44.3125 -10.390625 -41.40625 C -7.921875 -38.507812 -6.289062 -35.078125 -5.5 -31.109375 C -4.425781 -25.660156 -5.289062 -21.03125 -8.09375 -17.21875 L 11.84375 -21.15625 L 14.296875 -8.765625 L -43.859375 2.734375 L -46.203125 -9.09375 L -41.28125 -10.0625 C -45.601562 -12.40625 -48.34375 -16.519531 -49.5 -22.40625 Z M -15.234375 -26.9375 C -15.867188 -30.113281 -17.457031 -32.507812 -20 -34.125 C -22.550781 -35.75 -25.625 -36.203125 -29.21875 -35.484375 C -32.832031 -34.773438 -35.507812 -33.1875 -37.25 -30.71875 C -38.988281 -28.25 -39.539062 -25.425781 -38.90625 -22.25 C -38.28125 -19.070312 -36.691406 -16.675781 -34.140625 -15.0625 C -31.597656 -13.457031 -28.519531 -13.007812 -24.90625 -13.71875 C -21.3125 -14.4375 -18.644531 -16.023438 -16.90625 -18.484375 C -15.164062 -20.941406 -14.609375 -23.757812 -15.234375 -26.9375 Z M -15.234375 -26.9375 "/></g></g></g><g fill="#000000" fill-opacity="1"><g transform="translate(149.188289, 431.33602)"><g><path d="M -22 -48.34375 C -21.832031 -48.34375 -20.695312 -48.269531 -18.59375 -48.125 L -18.34375 -15.171875 C -15.644531 -15.785156 -13.519531 -17.203125 -11.96875 -19.421875 C -10.414062 -21.648438 -9.65625 -24.410156 -9.6875 -27.703125 C -9.695312 -29.960938 -10.046875 -31.96875 -10.734375 -33.71875 C -11.429688 -35.46875 -12.515625 -37.09375 -13.984375 -38.59375 L -6.75 -45.390625 C -2.03125 -41.316406 0.359375 -35.335938 0.421875 -27.453125 C 0.460938 -22.535156 -0.457031 -18.179688 -2.34375 -14.390625 C -4.226562 -10.597656 -6.863281 -7.660156 -10.25 -5.578125 C -13.632812 -3.503906 -17.484375 -2.453125 -21.796875 -2.421875 C -26.066406 -2.390625 -29.921875 -3.375 -33.359375 -5.375 C -36.804688 -7.375 -39.503906 -10.132812 -41.453125 -13.65625 C -43.398438 -17.175781 -44.390625 -21.117188 -44.421875 -25.484375 C -44.453125 -29.753906 -43.5625 -33.625 -41.75 -37.09375 C -39.9375 -40.5625 -37.320312 -43.296875 -33.90625 -45.296875 C -30.5 -47.296875 -26.53125 -48.3125 -22 -48.34375 Z M -34.859375 -25.65625 C -34.835938 -22.789062 -34.007812 -20.390625 -32.375 -18.453125 C -30.738281 -16.523438 -28.519531 -15.351562 -25.71875 -14.9375 L -25.875 -36.40625 C -28.625 -35.945312 -30.8125 -34.738281 -32.4375 -32.78125 C -34.070312 -30.832031 -34.878906 -28.457031 -34.859375 -25.65625 Z M -34.859375 -25.65625 "/></g></g></g><g fill="#000000" fill-opacity="1"><g transform="translate(148.126915, 385.500856)"><g><path d="M -33.984375 -56.703125 L 8.875 -48.921875 L 6.734375 -37.125 L 1.625 -38.046875 C 3.1875 -36.078125 4.25 -33.859375 4.8125 -31.390625 C 5.382812 -28.929688 5.429688 -26.375 4.953125 -23.71875 C 3.921875 -18.082031 1.488281 -13.910156 -2.34375 -11.203125 C -6.175781 -8.492188 -11.28125 -7.71875 -17.65625 -8.875 L -41.859375 -13.28125 L -39.609375 -25.703125 L -17.234375 -21.640625 C -10.316406 -20.378906 -6.332031 -22.644531 -5.28125 -28.4375 C -4.738281 -31.414062 -5.273438 -33.984375 -6.890625 -36.140625 C -8.503906 -38.304688 -11.222656 -39.738281 -15.046875 -40.4375 L -36.234375 -44.28125 Z M -33.984375 -56.703125 "/></g></g></g><g fill="#000000" fill-opacity="1"><g transform="translate(157.690534, 335.355305)"><g><path d="M -29.734375 -29.421875 C -31.222656 -31.554688 -32.050781 -34.007812 -32.21875 -36.78125 C -32.382812 -39.5625 -31.914062 -42.53125 -30.8125 -45.6875 L -19.8125 -41.8125 C -20.363281 -40.53125 -20.722656 -39.660156 -20.890625 -39.203125 C -22.085938 -35.796875 -22.070312 -32.785156 -20.84375 -30.171875 C -19.613281 -27.566406 -17.085938 -25.59375 -13.265625 -24.25 L 6.125 -17.421875 L 1.9375 -5.5 L -39.15625 -19.953125 L -35.15625 -31.328125 Z M -29.734375 -29.421875 "/></g></g></g><g fill="#000000" fill-opacity="1"><g transform="translate(168.442092, 305.262964)"><g/></g></g><g fill="#000000" fill-opacity="1"><g transform="translate(173.740599, 287.631487)"><g><path d="M 7.984375 -87.0625 L 34.53125 -49.09375 L 27.53125 -39.140625 L -0.234375 -46.703125 L 16.078125 -22.859375 L 9.09375 -12.921875 L -35.578125 -25.125 L -28.734375 -34.859375 L 1.28125 -26.328125 L -16.671875 -52.015625 L -10.515625 -60.765625 L 19.546875 -52.296875 L 1.546875 -77.921875 Z M 7.984375 -87.0625 "/></g></g></g><g fill="#000000" fill-opacity="1"><g transform="translate(214.295321, 231.134459)"><g><path d="M 21.484375 -48.59375 C 21.585938 -48.46875 22.285156 -47.566406 23.578125 -45.890625 L -0.859375 -23.78125 C 1.390625 -22.1875 3.859375 -21.546875 6.546875 -21.859375 C 9.242188 -22.179688 11.816406 -23.445312 14.265625 -25.65625 C 15.941406 -27.164062 17.203125 -28.757812 18.046875 -30.4375 C 18.890625 -32.125 19.378906 -34.015625 19.515625 -36.109375 L 29.421875 -35.203125 C 29.515625 -28.984375 26.632812 -23.226562 20.78125 -17.9375 C 17.132812 -14.644531 13.269531 -12.441406 9.1875 -11.328125 C 5.101562 -10.222656 1.160156 -10.238281 -2.640625 -11.375 C -6.441406 -12.519531 -9.789062 -14.691406 -12.6875 -17.890625 C -15.550781 -21.054688 -17.378906 -24.585938 -18.171875 -28.484375 C -18.960938 -32.390625 -18.691406 -36.238281 -17.359375 -40.03125 C -16.023438 -43.832031 -13.738281 -47.195312 -10.5 -50.125 C -7.332031 -52.988281 -3.847656 -54.894531 -0.046875 -55.84375 C 3.742188 -56.789062 7.519531 -56.65625 11.28125 -55.4375 C 15.039062 -54.226562 18.441406 -51.945312 21.484375 -48.59375 Z M -4.015625 -43.09375 C -6.140625 -41.164062 -7.378906 -38.945312 -7.734375 -36.4375 C -8.085938 -33.9375 -7.488281 -31.503906 -5.9375 -29.140625 L 9.984375 -43.53125 C 7.816406 -45.28125 5.457031 -46.113281 2.90625 -46.03125 C 0.363281 -45.945312 -1.941406 -44.96875 -4.015625 -43.09375 Z M -4.015625 -43.09375 "/></g></g></g><g fill="#000000" fill-opacity="1"><g transform="translate(247.807981, 199.861151)"><g><path d="M 3.953125 -54.1875 C 7.410156 -56.300781 11.039062 -57.425781 14.84375 -57.5625 C 18.644531 -57.707031 22.226562 -56.828125 25.59375 -54.921875 C 28.957031 -53.015625 31.804688 -50.148438 34.140625 -46.328125 C 36.472656 -42.503906 37.710938 -38.660156 37.859375 -34.796875 C 38.003906 -30.941406 37.144531 -27.351562 35.28125 -24.03125 C 33.414062 -20.71875 30.753906 -18.003906 27.296875 -15.890625 C 22.179688 -12.773438 17.304688 -12.007812 12.671875 -13.59375 L 15.28125 -9.3125 L 4.96875 -3.03125 L -26.3125 -54.34375 L -15.515625 -60.921875 L -4.515625 -42.875 C -3.617188 -47.53125 -0.796875 -51.300781 3.953125 -54.1875 Z M 20.03125 -23.59375 C 22.800781 -25.28125 24.503906 -27.597656 25.140625 -30.546875 C 25.773438 -33.503906 25.132812 -36.546875 23.21875 -39.671875 C 21.3125 -42.816406 18.898438 -44.773438 15.984375 -45.546875 C 13.078125 -46.328125 10.238281 -45.875 7.46875 -44.1875 C 4.695312 -42.5 2.992188 -40.1875 2.359375 -37.25 C 1.734375 -34.3125 2.375 -31.269531 4.28125 -28.125 C 6.195312 -25 8.609375 -23.039062 11.515625 -22.25 C 14.421875 -21.457031 17.257812 -21.90625 20.03125 -23.59375 Z M 20.03125 -23.59375 "/></g></g></g><g fill="#000000" fill-opacity="1"><g transform="translate(292.517058, 173.610121)"><g/></g></g><g fill="#000000" fill-opacity="1"><g transform="translate(310.897872, 165.275719)"><g><path d="M -4.59375 -27.796875 L 17.1875 -34.890625 L 20.3125 -25.25 L -1.46875 -18.15625 Z M -4.59375 -27.796875 "/></g></g></g><g fill="#000000" fill-opacity="1"><g transform="translate(338.022846, 156.528711)"><g/></g></g><g fill="#000000" fill-opacity="1"><g transform="translate(355.696529, 150.45924)"><g><path d="M 3.203125 -57 L 28.90625 -58.578125 C 35.050781 -58.960938 40.550781 -58.128906 45.40625 -56.078125 C 50.269531 -54.023438 54.140625 -50.945312 57.015625 -46.84375 C 59.890625 -42.75 61.503906 -37.878906 61.859375 -32.234375 C 62.210938 -26.578125 61.210938 -21.535156 58.859375 -17.109375 C 56.503906 -12.691406 53.039062 -9.164062 48.46875 -6.53125 C 43.90625 -3.894531 38.550781 -2.382812 32.40625 -2 L 6.703125 -0.421875 Z M 31.09375 -12.71875 C 36.75 -13.0625 41.164062 -14.914062 44.34375 -18.28125 C 47.519531 -21.644531 48.941406 -26.019531 48.609375 -31.40625 C 48.273438 -36.789062 46.328125 -40.953125 42.765625 -43.890625 C 39.203125 -46.835938 34.59375 -48.140625 28.9375 -47.796875 L 16.984375 -47.046875 L 19.140625 -11.96875 Z M 31.09375 -12.71875 "/></g></g></g><g fill="#000000" fill-opacity="1"><g transform="translate(416.611603, 146.901596)"><g><path d="M 51.125 -14.375 C 51.101562 -14.21875 50.859375 -13.109375 50.390625 -11.046875 L 17.796875 -15.8125 C 17.984375 -13.050781 19.0625 -10.738281 21.03125 -8.875 C 23 -7.007812 25.609375 -5.835938 28.859375 -5.359375 C 31.097656 -5.023438 33.128906 -5.066406 34.953125 -5.484375 C 36.785156 -5.898438 38.5625 -6.722656 40.28125 -7.953125 L 45.875 0.25 C 41.144531 4.300781 34.878906 5.753906 27.078125 4.609375 C 22.203125 3.898438 18.035156 2.320312 14.578125 -0.125 C 11.117188 -2.570312 8.617188 -5.625 7.078125 -9.28125 C 5.546875 -12.945312 5.09375 -16.910156 5.71875 -21.171875 C 6.332031 -25.398438 7.890625 -29.0625 10.390625 -32.15625 C 12.890625 -35.257812 16.023438 -37.503906 19.796875 -38.890625 C 23.578125 -40.273438 27.628906 -40.648438 31.953125 -40.015625 C 36.171875 -39.398438 39.851562 -37.929688 43 -35.609375 C 46.15625 -33.296875 48.460938 -30.300781 49.921875 -26.625 C 51.378906 -22.945312 51.78125 -18.863281 51.125 -14.375 Z M 30.671875 -30.546875 C 27.828125 -30.960938 25.328125 -30.507812 23.171875 -29.1875 C 21.015625 -27.863281 19.519531 -25.847656 18.6875 -23.140625 L 39.921875 -20.03125 C 39.890625 -22.8125 39.03125 -25.15625 37.34375 -27.0625 C 35.664062 -28.976562 33.441406 -30.140625 30.671875 -30.546875 Z M 37.640625 -55.953125 L 51.109375 -53.984375 L 34.921875 -44.578125 L 25.140625 -46 Z M 37.640625 -55.953125 "/></g></g></g><g fill="#000000" fill-opacity="1"><g transform="translate(462.318724, 153.26136)"><g><path d="M 60.28125 -25.9375 L 29.125 9.640625 L 16.765625 5.546875 L 13.078125 -41.5625 L 25.453125 -37.46875 L 27.59375 -5.53125 L 48.734375 -29.75 Z M 60.28125 -25.9375 "/></g></g></g><g fill="#000000" fill-opacity="1"><g transform="translate(503.781095, 166.413447)"><g><path d="M 52.96875 3.984375 C 52.882812 4.128906 52.269531 5.085938 51.125 6.859375 L 22.125 -8.765625 C 21.363281 -6.109375 21.582031 -3.5625 22.78125 -1.125 C 23.988281 1.300781 26.039062 3.289062 28.9375 4.84375 C 30.925781 5.914062 32.851562 6.566406 34.71875 6.796875 C 36.59375 7.035156 38.546875 6.875 40.578125 6.3125 L 43.03125 15.9375 C 37.195312 18.113281 30.8125 17.332031 23.875 13.59375 C 19.539062 11.257812 16.164062 8.351562 13.75 4.875 C 11.332031 1.394531 10.023438 -2.328125 9.828125 -6.296875 C 9.640625 -10.265625 10.566406 -14.144531 12.609375 -17.9375 C 14.640625 -21.695312 17.359375 -24.601562 20.765625 -26.65625 C 24.179688 -28.71875 27.898438 -29.753906 31.921875 -29.765625 C 35.941406 -29.773438 39.875 -28.742188 43.71875 -26.671875 C 47.476562 -24.640625 50.441406 -22 52.609375 -18.75 C 54.773438 -15.5 55.910156 -11.894531 56.015625 -7.9375 C 56.128906 -3.976562 55.113281 -0.00390625 52.96875 3.984375 Z M 39.25 -18.21875 C 36.726562 -19.570312 34.226562 -19.992188 31.75 -19.484375 C 29.28125 -18.984375 27.1875 -17.601562 25.46875 -15.34375 L 44.375 -5.15625 C 45.289062 -7.78125 45.28125 -10.28125 44.34375 -12.65625 C 43.414062 -15.03125 41.71875 -16.882812 39.25 -18.21875 Z M 39.25 -18.21875 "/></g></g></g><g fill="#000000" fill-opacity="1"><g transform="translate(545.071786, 189.375494)"><g><path d="M 39.953125 -45.25 L 50.1875 -37.84375 L 14.953125 10.828125 L 4.71875 3.421875 Z M 39.953125 -45.25 "/></g></g></g><g fill="#000000" fill-opacity="1"><g transform="translate(562.442716, 200.428038)"><g><path d="M 18.765625 18.8125 C 15.441406 15.644531 13.125 12.109375 11.8125 8.203125 C 10.507812 4.304688 10.289062 0.421875 11.15625 -3.453125 C 12.019531 -7.335938 13.941406 -10.835938 16.921875 -13.953125 C 19.898438 -17.078125 23.304688 -19.160156 27.140625 -20.203125 C 30.972656 -21.242188 34.867188 -21.195312 38.828125 -20.0625 C 42.785156 -18.9375 46.425781 -16.789062 49.75 -13.625 C 53.070312 -10.445312 55.375 -6.914062 56.65625 -3.03125 C 57.945312 0.84375 58.160156 4.71875 57.296875 8.59375 C 56.429688 12.46875 54.507812 15.96875 51.53125 19.09375 C 48.550781 22.207031 45.144531 24.285156 41.3125 25.328125 C 37.476562 26.378906 33.59375 26.347656 29.65625 25.234375 C 25.71875 24.128906 22.085938 21.988281 18.765625 18.8125 Z M 25.921875 11.3125 C 28.265625 13.550781 30.941406 14.597656 33.953125 14.453125 C 36.972656 14.304688 39.75 12.910156 42.28125 10.265625 C 44.820312 7.609375 46.09375 4.769531 46.09375 1.75 C 46.09375 -1.257812 44.921875 -3.882812 42.578125 -6.125 C 40.234375 -8.363281 37.546875 -9.421875 34.515625 -9.296875 C 31.492188 -9.171875 28.710938 -7.78125 26.171875 -5.125 C 23.640625 -2.476562 22.378906 0.359375 22.390625 3.390625 C 22.398438 6.429688 23.578125 9.070312 25.921875 11.3125 Z M 25.921875 11.3125 "/></g></g></g><g fill="#000000" fill-opacity="1"><g transform="translate(597.370368, 232.891583)"><g><path d="M 54.34375 0.15625 C 56.6875 3.457031 58.054688 7 58.453125 10.78125 C 58.859375 14.570312 58.226562 18.210938 56.5625 21.703125 C 54.90625 25.203125 52.253906 28.25 48.609375 30.84375 C 44.953125 33.4375 41.203125 34.9375 37.359375 35.34375 C 33.515625 35.757812 29.875 35.148438 26.4375 33.515625 C 23 31.890625 20.109375 29.425781 17.765625 26.125 C 14.546875 21.59375 13.441406 17.015625 14.453125 12.390625 L -2.125 24.15625 L -9.4375 13.84375 L 38.890625 -20.46875 L 45.875 -10.625 L 41.796875 -7.71875 C 46.691406 -7.351562 50.875 -4.726562 54.34375 0.15625 Z M 24.9375 18.34375 C 26.8125 20.976562 29.242188 22.507812 32.234375 22.9375 C 35.222656 23.375 38.210938 22.53125 41.203125 20.40625 C 44.203125 18.28125 45.988281 15.734375 46.5625 12.765625 C 47.132812 9.804688 46.484375 7.007812 44.609375 4.375 C 42.734375 1.726562 40.304688 0.191406 37.328125 -0.234375 C 34.347656 -0.660156 31.359375 0.1875 28.359375 2.3125 C 25.367188 4.4375 23.582031 6.976562 23 9.9375 C 22.414062 12.894531 23.0625 15.695312 24.9375 18.34375 Z M 24.9375 18.34375 "/></g></g></g><g fill="#000000" fill-opacity="1"><g transform="translate(626.969748, 273.652558)"><g><path d="M 53.25 10.734375 C 54.914062 14.429688 55.578125 18.175781 55.234375 21.96875 C 54.890625 25.757812 53.5625 29.207031 51.25 32.3125 C 48.945312 35.414062 45.753906 37.882812 41.671875 39.71875 C 37.585938 41.550781 33.613281 42.296875 29.75 41.953125 C 25.894531 41.609375 22.441406 40.300781 19.390625 38.03125 C 16.347656 35.757812 13.992188 32.773438 12.328125 29.078125 C 10.066406 24.015625 9.875 19.3125 11.75 14.96875 L -6.796875 23.28125 L -11.953125 11.734375 L 42.140625 -12.5 L 47.0625 -1.484375 L 42.484375 0.5625 C 47.210938 1.882812 50.800781 5.273438 53.25 10.734375 Z M 20.890625 22.84375 C 22.210938 25.800781 24.296875 27.78125 27.140625 28.78125 C 29.992188 29.78125 33.09375 29.53125 36.4375 28.03125 C 39.789062 26.53125 42.035156 24.382812 43.171875 21.59375 C 44.316406 18.800781 44.226562 15.925781 42.90625 12.96875 C 41.582031 10.019531 39.5 8.046875 36.65625 7.046875 C 33.8125 6.046875 30.710938 6.296875 27.359375 7.796875 C 24.015625 9.296875 21.769531 11.441406 20.625 14.234375 C 19.476562 17.023438 19.566406 19.894531 20.890625 22.84375 Z M 20.890625 22.84375 "/></g></g></g><g fill="#000000" fill-opacity="1"><g transform="translate(647.899083, 319.689388)"><g><path d="M 32.265625 42.203125 C 32.109375 42.234375 30.984375 42.410156 28.890625 42.734375 L 21.265625 10.671875 C 18.773438 11.878906 17.023438 13.738281 16.015625 16.25 C 15.015625 18.769531 14.894531 21.632812 15.65625 24.84375 C 16.175781 27.039062 16.96875 28.914062 18.03125 30.46875 C 19.09375 32.019531 20.507812 33.359375 22.28125 34.484375 L 16.734375 42.71875 C 11.222656 39.8125 7.554688 34.519531 5.734375 26.84375 C 4.597656 22.0625 4.523438 17.613281 5.515625 13.5 C 6.503906 9.382812 8.410156 5.929688 11.234375 3.140625 C 14.066406 0.359375 17.582031 -1.53125 21.78125 -2.53125 C 25.9375 -3.519531 29.914062 -3.421875 33.71875 -2.234375 C 37.53125 -1.054688 40.773438 1.023438 43.453125 4.015625 C 46.140625 7.015625 47.988281 10.640625 49 14.890625 C 49.988281 19.046875 49.988281 23.015625 49 26.796875 C 48.007812 30.578125 46.078125 33.828125 43.203125 36.546875 C 40.328125 39.265625 36.679688 41.148438 32.265625 42.203125 Z M 39.71875 17.1875 C 39.050781 14.394531 37.703125 12.242188 35.671875 10.734375 C 33.648438 9.222656 31.222656 8.582031 28.390625 8.8125 L 33.375 29.6875 C 35.945312 28.625 37.804688 26.957031 38.953125 24.6875 C 40.109375 22.414062 40.363281 19.914062 39.71875 17.1875 Z M 39.71875 17.1875 "/></g></g></g><g fill="#000000" fill-opacity="1"><g transform="translate(659.20261, 364.121866)"><g><path d="M 45.828125 47.640625 L 2.3125 49.671875 L 1.75 37.6875 L 6.9375 37.453125 C 4.96875 35.878906 3.429688 33.953125 2.328125 31.671875 C 1.222656 29.398438 0.609375 26.914062 0.484375 24.21875 C 0.210938 18.5 1.644531 13.894531 4.78125 10.40625 C 7.914062 6.914062 12.722656 5.019531 19.203125 4.71875 L 43.78125 3.5625 L 44.359375 16.171875 L 21.640625 17.234375 C 14.617188 17.554688 11.242188 20.65625 11.515625 26.53125 C 11.660156 29.550781 12.757812 31.929688 14.8125 33.671875 C 16.875 35.421875 19.84375 36.203125 23.71875 36.015625 L 45.234375 35.015625 Z M 45.828125 47.640625 "/></g></g></g><g fill="#000000" fill-opacity="1"><g transform="translate(661.116601, 415.135238)"><g><path d="M 35.578125 22.015625 C 37.492188 23.765625 38.84375 25.972656 39.625 28.640625 C 40.414062 31.304688 40.625 34.300781 40.25 37.625 L 28.671875 36.328125 C 28.929688 34.953125 29.09375 34.019531 29.15625 33.53125 C 29.550781 29.9375 28.859375 27.003906 27.078125 24.734375 C 25.296875 22.472656 22.394531 21.113281 18.375 20.65625 L -2.0625 18.359375 L -0.65625 5.796875 L 42.625 10.671875 L 41.28125 22.65625 Z M 35.578125 22.015625 "/></g></g></g><g fill="#000000" fill-opacity="1"><g transform="translate(657.38599, 446.87043)"><g/></g></g><g fill="#000000" fill-opacity="1"><g transform="translate(654.940994, 465.676954)"><g><path d="M 42.140625 49.140625 C 40.378906 53.847656 38.066406 57.640625 35.203125 60.515625 C 32.347656 63.390625 29.128906 65.21875 25.546875 66 C 21.960938 66.789062 18.195312 66.453125 14.25 64.984375 C 10.363281 63.523438 7.316406 61.316406 5.109375 58.359375 C 2.898438 55.410156 1.671875 51.914062 1.421875 47.875 C 1.171875 43.832031 1.925781 39.457031 3.6875 34.75 L 7.6875 24.0625 L -6.953125 18.59375 L -2.359375 6.296875 L 50.734375 26.15625 Z M 13.953125 37.8125 C 12.566406 41.5 12.3125 44.597656 13.1875 47.109375 C 14.070312 49.628906 15.976562 51.441406 18.90625 52.546875 C 21.882812 53.660156 24.53125 53.550781 26.84375 52.21875 C 29.15625 50.894531 31.003906 48.390625 32.390625 44.703125 L 36.125 34.703125 L 17.6875 27.8125 Z M 13.953125 37.8125 "/></g></g></g><g fill="#000000" fill-opacity="1"><g transform="translate(636.061584, 516.162994)"><g><path d="M 11.6875 64.578125 L -17.5625 23.71875 C -20.820312 19.40625 -22.5625 15.457031 -22.78125 11.875 C -23 8.300781 -22.023438 4.738281 -19.859375 1.1875 C -18.679688 -0.75 -17.21875 -2.476562 -15.46875 -4 C -13.71875 -5.53125 -11.945312 -6.570312 -10.15625 -7.125 L -4.890625 1.484375 C -6.128906 1.859375 -7.285156 2.457031 -8.359375 3.28125 C -9.441406 4.113281 -10.304688 5.066406 -10.953125 6.140625 C -11.847656 7.617188 -12.21875 9.035156 -12.0625 10.390625 C -11.90625 11.753906 -11.222656 13.304688 -10.015625 15.046875 L -9.75 15.390625 L 37.53125 22.109375 L 30.765625 33.234375 L -0.828125 28.3125 L 18 54.1875 Z M 11.6875 64.578125 "/></g></g></g><g fill="#000000" fill-opacity="1"><g transform="translate(612.922344, 553.83242)"><g><path d="M -20.0625 27.4375 C -19.976562 25.894531 -19.535156 24.28125 -18.734375 22.59375 C -17.929688 20.914062 -16.890625 19.304688 -15.609375 17.765625 C -12.296875 13.785156 -8.71875 11.550781 -4.875 11.0625 C -1.039062 10.570312 2.847656 11.96875 6.796875 15.25 L 20.5625 26.6875 L 24.875 21.515625 L 32.34375 27.734375 L 28.03125 32.90625 L 36.1875 39.6875 L 28.125 49.390625 L 19.96875 42.609375 L 13.03125 50.96875 L 5.5625 44.75 L 12.5 36.390625 L -1.140625 25.046875 C -2.546875 23.878906 -3.9375 23.335938 -5.3125 23.421875 C -6.695312 23.515625 -7.9375 24.222656 -9.03125 25.546875 C -10.3125 27.085938 -10.984375 28.75 -11.046875 30.53125 Z M -20.0625 27.4375 "/></g></g></g><g fill="#000000" fill-opacity="1"><g transform="translate(594.183423, 578.235676)"><g><path d="M 4.71875 54.5625 C 0.644531 58.113281 -3.703125 59.757812 -8.328125 59.5 C -12.953125 59.238281 -17.363281 56.707031 -21.5625 51.90625 L -37.953125 33.109375 L -28.4375 24.8125 L -13.3125 42.140625 C -11.039062 44.742188 -8.773438 46.1875 -6.515625 46.46875 C -4.265625 46.757812 -2.0625 45.960938 0.09375 44.078125 C 2.488281 41.992188 3.75 39.585938 3.875 36.859375 C 4.007812 34.128906 2.800781 31.300781 0.25 28.375 L -13.921875 12.140625 L -4.390625 3.828125 L 35.109375 49.109375 L 25.578125 57.421875 L 11.734375 41.546875 C 11.585938 43.910156 10.90625 46.210938 9.6875 48.453125 C 8.476562 50.691406 6.820312 52.726562 4.71875 54.5625 Z M 4.71875 54.5625 "/></g></g></g><g fill="#000000" fill-opacity="1"><g transform="translate(556.338923, 611.758103)"><g><path d="M -23.296875 12.796875 C -19.328125 10.484375 -15.285156 9.238281 -11.171875 9.0625 C -7.054688 8.894531 -3.257812 9.765625 0.21875 11.671875 C 3.695312 13.578125 6.519531 16.394531 8.6875 20.125 C 10.863281 23.863281 11.914062 27.71875 11.84375 31.6875 C 11.78125 35.664062 10.65625 39.394531 8.46875 42.875 C 6.28125 46.363281 3.203125 49.265625 -0.765625 51.578125 C -4.734375 53.878906 -8.765625 55.109375 -12.859375 55.265625 C -16.953125 55.429688 -20.734375 54.554688 -24.203125 52.640625 C -27.679688 50.734375 -30.507812 47.910156 -32.6875 44.171875 C -34.851562 40.441406 -35.90625 36.59375 -35.84375 32.625 C -35.78125 28.65625 -34.664062 24.929688 -32.5 21.453125 C -30.332031 17.984375 -27.265625 15.097656 -23.296875 12.796875 Z M -18.09375 21.75 C -20.894531 23.375 -22.644531 25.648438 -23.34375 28.578125 C -24.039062 31.515625 -23.46875 34.566406 -21.625 37.734375 C -19.78125 40.921875 -17.410156 42.9375 -14.515625 43.78125 C -11.617188 44.625 -8.769531 44.234375 -5.96875 42.609375 C -3.164062 40.984375 -1.40625 38.695312 -0.6875 35.75 C 0.03125 32.8125 -0.53125 29.75 -2.375 26.5625 C -4.21875 23.394531 -6.597656 21.394531 -9.515625 20.5625 C -12.429688 19.726562 -15.289062 20.125 -18.09375 21.75 Z M -18.09375 21.75 "/></g></g></g><g fill="#000000" fill-opacity="1"><g transform="translate(515.430211, 636.271022)"><g><path d="M -15.984375 52.390625 C -21.078125 54.160156 -25.722656 54.0625 -29.921875 52.09375 C -34.128906 50.125 -37.28125 46.128906 -39.375 40.109375 L -47.578125 16.5625 L -35.640625 12.40625 L -28.078125 34.125 C -26.941406 37.394531 -25.378906 39.582031 -23.390625 40.6875 C -21.410156 41.800781 -19.066406 41.882812 -16.359375 40.9375 C -13.359375 39.894531 -11.285156 38.132812 -10.140625 35.65625 C -9.003906 33.175781 -9.078125 30.097656 -10.359375 26.421875 L -17.4375 6.078125 L -5.5 1.921875 L 8.828125 43.0625 L -2.5625 47.015625 L -4.25 42.203125 C -5.226562 44.484375 -6.726562 46.503906 -8.75 48.265625 C -10.769531 50.035156 -13.179688 51.410156 -15.984375 52.390625 Z M -15.984375 52.390625 "/></g></g></g><g fill="#000000" fill-opacity="1"><g transform="translate(466.12605, 652.522057)"><g/></g></g><g fill="#000000" fill-opacity="1"><g transform="translate(446.392665, 656.788003)"><g><path d="M -1.375 28.140625 L -24.15625 30.46875 L -25.1875 20.390625 L -2.40625 18.0625 Z M -1.375 28.140625 "/></g></g></g></svg>